<svg width="1028" height="1028" viewBox="0 0 1028 1028" fill="none" xmlns="http://www.w3.org/2000/svg">
<rect width="1028" height="1028" rx="279" fill="url(#paint0_linear_2152_450)"/>
<path fill-rule="evenodd" clip-rule="evenodd" d="M582.25 112.75C576.383 112.75 570.935 114.008 565.905 115.684C576.592 122.81 582.46 132.242 585.394 142.932C585.604 144.399 586.022 145.447 586.232 146.914C586.442 148.171 586.651 149.429 586.651 150.687C587.49 169.131 581.831 171.436 577.85 182.335C571.773 196.378 573.449 211.469 580.783 223.625C581.412 225.092 582.25 226.769 583.298 228.236C575.335 175.209 619.55 167.244 627.723 150.687C628.351 136.225 616.407 126.583 606.977 119.876C597.967 114.427 589.794 112.75 582.25 112.75ZM648.887 124.697C648.049 129.518 648.678 128.26 648.469 130.775C648.259 132.452 648.259 134.548 648.05 136.225C647.631 137.901 647.211 139.578 646.583 141.255C646.164 142.932 645.535 144.608 644.907 146.285C644.068 147.962 643.44 149.429 642.602 151.106C641.973 151.944 641.554 152.782 640.925 153.621C640.506 154.25 640.087 154.878 639.668 155.507C638.62 156.974 637.572 158.442 636.525 159.699C635.267 160.957 634.22 162.424 632.753 163.472V163.682C631.495 164.73 630.238 165.987 628.771 167.035C624.371 170.389 619.341 172.904 614.731 176.048C613.265 177.096 611.798 177.934 610.54 179.192C609.073 180.24 607.816 181.288 606.559 182.545C605.092 183.803 604.044 185.06 602.787 186.527C601.739 187.785 600.482 189.252 599.644 190.719C598.596 192.186 597.548 193.654 596.71 195.121C595.871 196.797 595.243 198.265 594.405 199.941C593.776 201.618 593.148 203.085 592.728 204.762C592.1 206.648 591.681 208.325 591.262 210.002C591.052 210.841 591.052 211.888 590.843 212.727C590.633 213.565 590.633 214.403 590.424 215.242C590.424 216.919 590.214 218.805 590.214 220.482C590.214 221.739 590.214 222.997 590.424 224.254C590.424 225.931 590.634 227.608 591.053 229.494C591.263 231.171 591.681 232.848 592.101 234.525C592.729 236.201 593.148 237.878 593.777 239.555C594.196 240.603 594.825 241.651 595.244 242.489L547.047 223.835C538.875 221.53 530.912 219.434 522.739 217.547C518.339 216.499 513.938 215.451 509.538 214.403C496.964 211.888 484.182 210.002 471.399 208.744C470.981 208.744 470.771 208.535 470.352 208.535C457.779 207.277 445.415 206.648 432.842 206.648C423.622 206.648 414.402 207.067 405.391 207.696C392.608 208.535 379.826 210.211 367.043 212.307C363.9 212.726 360.757 213.355 357.613 213.984C351.117 215.242 344.831 216.709 338.754 218.176C335.611 219.015 332.467 219.853 329.324 220.691C326.181 221.949 323.247 223.416 320.313 224.673C318.008 225.721 315.703 226.769 313.398 227.817C312.979 228.027 312.56 228.027 312.35 228.236C310.255 229.284 308.369 230.122 306.483 231.17C305.854 231.38 305.435 231.589 305.016 231.799C302.711 232.847 300.406 234.105 298.52 235.153C297.053 235.781 295.586 236.62 294.329 237.249C293.7 237.668 292.862 238.087 292.443 238.297C290.557 239.345 288.671 240.392 286.995 241.441C285.109 242.488 283.432 243.536 281.966 244.584C280.499 245.632 279.032 246.471 277.775 247.519C277.565 247.729 277.356 247.729 277.146 247.938C275.889 248.776 274.422 249.824 273.164 250.872C273.164 250.872 272.955 251.082 272.746 251.291C271.698 252.13 270.65 252.968 269.602 253.806C269.184 254.016 268.764 254.435 268.345 254.645C267.297 255.483 266.25 256.531 265.202 257.369C264.992 257.788 264.573 257.998 264.363 258.208C263.106 259.466 261.849 260.514 260.591 261.771C260.382 261.771 260.382 261.981 260.173 262.19C258.915 263.238 257.658 264.496 256.401 265.753C256.191 265.963 256.191 266.172 255.982 266.172C254.934 267.22 253.886 268.268 252.839 269.525C252.42 269.944 251.791 270.364 251.372 270.783C250.324 272.041 249.067 273.298 247.81 274.556C247.6 274.975 247.181 275.185 246.971 275.604C245.295 277.281 243.828 278.957 242.151 280.634C241.941 280.844 241.733 281.053 241.523 281.263C238.17 284.826 234.607 288.389 230.836 291.533C227.064 294.886 223.082 298.03 219.101 300.755C214.91 303.689 210.928 306.204 206.528 308.72C202.337 311.025 197.936 313.121 193.326 315.007C188.925 316.894 184.315 318.571 179.705 320.038C170.904 321.924 161.893 325.487 154.14 326.116C152.464 326.116 150.578 326.535 148.901 326.745C147.015 327.163 145.339 327.583 143.663 328.002C141.986 328.631 140.31 329.26 138.633 329.889C136.957 330.517 135.281 331.356 133.604 332.194C132.137 333.242 130.461 334.08 128.994 335.128C127.527 336.176 126.06 337.434 124.803 338.691C123.336 339.74 121.869 341.207 120.612 342.464C119.355 343.931 118.097 345.189 117.05 346.656C116.002 348.333 114.745 349.8 113.906 351.477C112.859 352.944 111.811 354.621 110.973 356.297C110.134 358.184 109.296 359.86 108.668 361.747C108.039 363.424 107.41 365.31 106.782 367.196C106.363 368.873 105.943 370.55 105.734 372.226C105.734 372.437 105.524 372.645 105.524 372.855C105.105 374.742 105.105 377.257 104.895 378.515C104.685 379.982 104.477 381.239 104.477 382.706C104.477 383.545 104.477 384.593 104.686 385.431C104.896 386.898 105.105 388.156 105.525 389.413C105.944 390.671 106.364 391.928 106.992 393.186V393.396C107.62 394.654 108.459 395.911 109.297 397.169C110.135 398.426 110.973 399.684 112.021 400.941C113.069 401.989 114.326 403.247 115.583 404.295C116.841 405.552 118.098 406.6 119.565 407.648C124.594 412.05 125.851 413.517 132.347 416.87C133.395 417.499 134.443 417.918 135.7 418.547C135.91 418.547 136.119 418.757 136.329 418.757C136.329 419.176 136.329 419.386 136.539 419.805C136.749 421.482 137.168 423.159 137.587 424.835C138.005 426.722 138.634 428.399 139.263 429.866C139.892 431.123 140.311 432.381 140.939 433.638C141.149 434.057 141.358 434.477 141.568 434.686C142.407 436.363 143.244 437.83 144.083 439.297C145.13 440.765 146.178 442.232 147.226 443.699C148.274 444.956 149.531 446.424 150.788 447.681C152.046 448.939 153.303 449.987 154.77 451.244C154.77 451.244 154.98 451.454 155.189 451.454C156.446 452.502 157.703 453.55 158.961 454.389C160.427 455.437 161.894 456.275 163.571 457.113C165.037 457.952 166.714 458.79 168.39 459.419C169.648 460.048 171.114 460.467 172.581 460.886C172.791 461.096 173 461.096 173.42 461.305C174.258 461.515 175.306 461.724 176.144 461.934C175.515 473.252 175.305 483.941 176.982 487.714C178.868 491.906 188.089 479.121 197.309 464.449C196.052 478.911 195.213 495.888 197.309 500.918C199.614 506.158 212.187 489.81 223.084 471.785C371.655 437.411 507.234 540.112 521.484 685.151C518.759 662.515 490.889 649.94 478.107 653.084C471.82 668.594 461.133 688.505 443.95 700.871C445.417 687.038 444.788 672.785 441.854 658.952C437.244 678.235 428.234 696.26 415.87 711.77C395.963 713.237 376.055 703.596 365.578 689.134C364.739 688.505 364.53 687.247 363.901 686.409C363.273 684.942 362.644 683.475 362.225 682.008C361.596 680.54 361.177 679.073 360.968 677.606C360.758 676.139 360.758 674.672 360.758 672.995C360.758 671.947 360.758 670.899 360.758 669.851C360.968 668.384 361.387 666.917 361.806 665.45C362.224 663.983 362.644 662.515 363.273 661.048C364.111 659.581 364.739 658.114 365.787 656.647C369.349 646.586 369.349 638.412 362.853 633.591C361.596 632.753 360.339 632.124 358.872 631.495C358.033 631.286 356.986 630.867 356.148 630.657C355.519 630.447 355.1 630.238 354.471 630.028C353.005 629.609 351.538 629.189 350.071 628.98C348.604 628.561 347.137 628.351 345.67 628.351C344.203 628.141 342.527 627.932 341.06 627.932C340.012 627.932 338.965 628.142 337.917 628.142C336.24 628.142 334.774 628.352 333.307 628.771C331.84 628.981 330.373 629.19 328.906 629.61C327.439 630.028 325.972 630.448 324.506 631.077C323.039 631.706 321.781 632.334 320.315 632.963C319.057 633.592 317.8 634.43 316.333 635.059C267.508 666.917 296.635 741.533 329.954 763.121C317.381 765.427 304.598 768.151 301.036 770.876C300.826 771.086 300.617 771.295 300.617 771.295C309.628 776.744 319.058 781.355 328.906 785.338C342.318 789.739 356.567 793.721 362.854 795.398V795.608C380.246 799.171 397.849 800.429 415.661 799.381C508.491 792.883 584.558 722.25 598.389 629.19C598.807 631.077 599.227 632.753 599.646 634.64C600.275 638.412 601.113 642.395 601.532 646.377V646.587C601.951 648.474 602.161 650.36 602.37 652.037V652.875C602.581 654.762 602.789 656.648 602.789 658.325C602.999 660.63 603.208 662.936 603.208 665.242V668.595C603.208 669.643 603.418 670.9 603.418 671.948C603.418 673.206 603.208 674.464 603.208 675.721V678.655C603.208 680.123 602.998 681.38 602.998 682.847C602.998 683.686 602.998 684.524 602.788 685.572C602.788 687.039 602.578 688.506 602.578 690.183C602.368 690.812 602.368 691.441 602.368 692.07C602.158 693.746 601.949 695.213 601.739 696.89C601.739 697.519 601.739 698.148 601.53 698.777C601.319 700.872 600.901 702.759 600.691 704.855V705.065V705.275C600.272 707.161 599.853 709.257 599.434 711.143V711.772C599.015 713.658 598.595 715.545 598.177 717.431C598.177 717.641 597.967 718.06 597.967 718.27C597.548 720.156 597.128 722.043 596.5 723.929V724.558C595.871 726.654 595.243 728.54 594.823 730.426C594.614 730.636 594.614 730.845 594.614 730.845C593.985 732.941 593.356 735.037 592.728 737.133C591.889 739.229 591.261 741.115 590.423 743.211C589.584 745.307 588.956 747.403 588.118 749.289C587.279 751.385 586.441 753.272 585.603 755.368H585.393C584.554 757.254 583.716 759.35 582.669 761.236C582.459 761.865 582.25 762.284 582.04 762.703C581.83 762.914 581.83 763.122 581.621 763.332C568 790.789 547.883 814.892 522.738 833.756C521.061 834.804 519.385 836.061 517.708 837.319C517.29 837.738 516.661 837.948 516.241 838.367C514.775 839.415 513.308 840.463 511.631 841.511L512.26 842.769H512.47C515.403 842.35 518.337 841.93 521.271 841.511H521.481C526.929 840.672 532.377 839.624 537.826 838.577C539.293 838.366 540.969 837.948 542.436 837.528C543.484 837.318 544.322 837.11 545.37 836.9C546.836 836.69 548.303 836.271 549.77 836.061C551.027 835.642 552.285 835.432 553.542 835.013C574.497 829.983 594.824 823.066 614.312 814.892C580.993 860.374 536.359 897.053 484.181 921.156C508.279 919.479 532.377 915.497 555.638 908.79C640.086 883.848 711.124 827.048 753.663 750.547C745.071 798.963 725.793 845.074 697.294 885.316C717.62 871.902 736.27 856.392 753.244 838.786C800.183 789.741 830.987 727.491 841.465 660.631C848.589 693.747 850.685 727.911 847.541 761.655C998.837 550.594 860.115 331.778 802.069 274.139C801.859 273.72 801.65 273.51 801.65 273.091C801.44 273.301 801.44 273.301 801.44 273.51C801.44 273.3 801.44 273.3 801.23 273.091C801.23 275.606 801.021 278.122 800.812 280.637C800.183 285.457 799.554 290.068 798.716 294.68C797.668 299.291 796.411 303.902 795.154 308.513C793.687 312.914 792.01 317.525 790.124 321.927C788.238 326.119 786.143 330.52 783.838 334.712C781.533 338.694 779.018 342.886 776.294 346.659C773.57 350.641 770.636 354.414 767.702 357.977C764.559 361.75 761.206 365.103 757.854 368.457C755.758 370.343 753.872 372.02 751.777 373.696C750.1 375.164 748.633 376.421 746.957 377.888C743.185 380.823 739.413 383.547 735.222 386.063C731.241 388.578 727.05 391.093 722.859 393.189C718.458 395.285 714.058 397.171 709.657 399.057C705.256 400.734 700.646 402.201 696.036 403.459C691.426 404.716 686.606 405.764 681.996 406.603C677.177 407.441 672.357 407.86 667.747 408.279C664.394 408.489 661.041 408.698 657.688 408.698C652.869 408.698 648.049 408.28 643.439 407.86C638.619 407.441 633.8 406.812 629.19 405.764C624.37 404.925 619.76 403.668 615.15 402.201H614.94C619.55 401.782 624.16 401.362 628.77 400.524C633.59 399.685 638.2 398.638 642.81 397.38C647.42 396.122 652.03 394.655 656.431 392.978C661.041 391.302 665.442 389.206 669.633 387.11C674.033 385.014 678.015 382.708 682.206 380.193C686.187 377.468 690.169 374.744 693.94 371.809C697.712 368.875 701.275 365.731 704.628 362.378C708.19 359.234 711.333 355.671 714.476 352.108C717.62 348.335 720.553 344.562 723.278 340.79C723.696 340.161 724.116 339.322 724.535 338.694C726.63 335.34 728.726 331.987 730.612 328.633C732.917 324.441 735.012 320.249 736.898 315.848C738.784 311.446 740.461 307.045 741.928 302.434C743.394 298.032 744.442 293.421 745.49 288.81C746.329 283.99 747.166 279.378 747.585 274.767C748.004 269.947 748.424 265.126 748.424 260.515C748.424 257.161 748.214 253.808 748.005 250.455C747.586 245.634 746.957 241.023 746.329 236.412C745.49 231.591 744.443 226.98 743.185 222.369C741.719 217.967 740.252 213.356 738.575 208.955C736.899 204.553 734.804 200.152 732.708 195.96C730.403 191.768 728.098 187.576 725.583 183.594C722.859 179.612 720.135 175.839 717.201 172.066C714.058 168.503 710.915 164.94 707.562 161.377C705.885 159.7 703.999 157.814 702.114 156.137C692.684 148.801 682.835 141.885 672.986 135.597C671.519 134.758 670.262 134.13 668.795 133.501C661.88 129.1 655.383 126.793 648.887 124.697Z" fill="#E0234E"/>
<defs>
<linearGradient id="paint0_linear_2152_450" x1="514" y1="0" x2="514" y2="1028" gradientUnits="userSpaceOnUse">
<stop stop-color="#871B3F"/>
<stop offset="1" stop-color="#B91A32"/>
</linearGradient>
</defs>
</svg>
