<svg width="5374" height="685" viewBox="0 0 5374 685" fill="none" xmlns="http://www.w3.org/2000/svg">
<g filter="url(#filter0_d_2156_498)">
<path d="M3099.5 525V164.25H3167L3289.5 465.25L3247.75 409H3269L3268.5 164.25H3325.75V525H3259L3135.75 224L3177.5 280.25H3156.25L3156.75 525H3099.5ZM3458.75 530C3438.08 530 3420.42 524.833 3405.75 514.5C3391.25 504.167 3380.17 488.833 3372.5 468.5C3365 448 3361.25 422.583 3361.25 392.25V391.75C3361.25 361.583 3365 336.333 3372.5 316C3380 295.667 3390.83 280.333 3405 270C3419.17 259.5 3436.33 254.25 3456.5 254.25C3476.67 254.25 3493.75 259.5 3507.75 270C3521.75 280.333 3532.42 295.583 3539.75 315.75C3547.25 335.75 3551 360.167 3551 389V409.25H3394V367.75H3521.5L3491.75 405.75V375.25C3491.75 359.583 3490.33 346.5 3487.5 336C3484.67 325.333 3480.67 317.333 3475.5 312C3470.5 306.5 3464.42 303.75 3457.25 303.75C3450.08 303.75 3443.92 306.5 3438.75 312C3433.75 317.5 3429.83 325.583 3427 336.25C3424.33 346.75 3423 359.75 3423 375.25V406.5C3423 422.833 3424.5 436.5 3427.5 447.5C3430.5 458.5 3434.67 466.75 3440 472.25C3445.5 477.583 3452 480.25 3459.5 480.25C3465.33 480.25 3470.5 478.917 3475 476.25C3479.5 473.417 3483.17 469.417 3486 464.25C3488.83 459.083 3490.83 452.917 3492 445.75L3493 440.75H3549.25L3548.5 447C3547 459.167 3543.92 470.333 3539.25 480.5C3534.75 490.5 3528.75 499.25 3521.25 506.75C3513.75 514.083 3504.75 519.833 3494.25 524C3483.75 528 3471.92 530 3458.75 530ZM3616.5 525L3557.25 259H3619.75L3658.5 468.25H3660L3698.75 259H3760.75L3701.5 525H3616.5ZM3866.25 530C3845.58 530 3827.92 524.833 3813.25 514.5C3798.75 504.167 3787.67 488.833 3780 468.5C3772.5 448 3768.75 422.583 3768.75 392.25V391.75C3768.75 361.583 3772.5 336.333 3780 316C3787.5 295.667 3798.33 280.333 3812.5 270C3826.67 259.5 3843.83 254.25 3864 254.25C3884.17 254.25 3901.25 259.5 3915.25 270C3929.25 280.333 3939.92 295.583 3947.25 315.75C3954.75 335.75 3958.5 360.167 3958.5 389V409.25H3801.5V367.75H3929L3899.25 405.75V375.25C3899.25 359.583 3897.83 346.5 3895 336C3892.17 325.333 3888.17 317.333 3883 312C3878 306.5 3871.92 303.75 3864.75 303.75C3857.58 303.75 3851.42 306.5 3846.25 312C3841.25 317.5 3837.33 325.583 3834.5 336.25C3831.83 346.75 3830.5 359.75 3830.5 375.25V406.5C3830.5 422.833 3832 436.5 3835 447.5C3838 458.5 3842.17 466.75 3847.5 472.25C3853 477.583 3859.5 480.25 3867 480.25C3872.83 480.25 3878 478.917 3882.5 476.25C3887 473.417 3890.67 469.417 3893.5 464.25C3896.33 459.083 3898.33 452.917 3899.5 445.75L3900.5 440.75H3956.75L3956 447C3954.5 459.167 3951.42 470.333 3946.75 480.5C3942.25 490.5 3936.25 499.25 3928.75 506.75C3921.25 514.083 3912.25 519.833 3901.75 524C3891.25 528 3879.42 530 3866.25 530ZM3990.5 525V259H4052.5V301H4053.75C4057.08 283.667 4062.75 271.667 4070.75 265C4078.92 258.167 4088.92 254.75 4100.75 254.75C4104.08 254.75 4107.25 255 4110.25 255.5C4113.25 255.833 4116 256.333 4118.5 257V315C4115.5 313.833 4112.17 312.917 4108.5 312.25C4104.83 311.417 4101 311 4097 311C4087 311 4078.67 313.5 4072 318.5C4065.5 323.5 4060.58 330.75 4057.25 340.25C4054.08 349.75 4052.5 361.333 4052.5 375V525H3990.5ZM4333.75 530C4311.25 530 4292.08 525.917 4276.25 517.75C4260.42 509.583 4248.25 497.917 4239.75 482.75C4231.25 467.583 4226.58 449.583 4225.75 428.75V421.5H4286.75L4287.25 429.25C4287.92 439.083 4290.25 447.417 4294.25 454.25C4298.25 461.083 4303.58 466.25 4310.25 469.75C4317.08 473.083 4325 474.75 4334 474.75C4342.83 474.75 4350.33 473.167 4356.5 470C4362.83 466.667 4367.67 462 4371 456C4374.5 449.833 4376.25 442.5 4376.25 434V433.5C4376.25 421.5 4372.67 411.083 4365.5 402.25C4358.5 393.417 4345.67 383.917 4327 373.75L4301 360C4277.67 348 4260 334 4248 318C4236.17 302 4230.25 282 4230.25 258V257.5C4230.25 237.833 4234.5 220.667 4243 206C4251.67 191.167 4263.75 179.667 4279.25 171.5C4294.75 163.333 4313.08 159.25 4334.25 159.25C4355.92 159.25 4374.08 163.417 4388.75 171.75C4403.58 179.917 4414.92 191.5 4422.75 206.5C4430.75 221.333 4435 238.833 4435.5 259L4435.75 267.75H4374.75L4374.5 260.25C4374 250.083 4372.08 241.667 4368.75 235C4365.58 228.167 4361.08 223 4355.25 219.5C4349.42 216 4342.33 214.25 4334 214.25C4325.83 214.417 4318.75 216.167 4312.75 219.5C4306.92 222.667 4302.42 227.25 4299.25 233.25C4296.08 239.25 4294.5 246.25 4294.5 254.25V254.5C4294.5 265.833 4297.92 275.75 4304.75 284.25C4311.75 292.75 4323.17 301.167 4339 309.5L4365 323.25C4383.33 333.083 4398 343.083 4409 353.25C4420.17 363.25 4428.17 374.333 4433 386.5C4438 398.5 4440.5 412.417 4440.5 428.25V428.75C4440.5 449.583 4436.17 467.583 4427.5 482.75C4419 497.917 4406.75 509.583 4390.75 517.75C4374.75 525.917 4355.75 530 4333.75 530ZM4563 529.5C4538 529.5 4519.08 523.667 4506.25 512C4493.58 500.167 4487.25 481.333 4487.25 455.5V308.5H4459.25V259H4487.25V192.5H4550.25V259H4589.25V308.5H4550.25V450.5C4550.25 461.333 4552.42 469 4556.75 473.5C4561.25 478 4568.42 480.25 4578.25 480.25C4580.58 480.25 4582.75 480.167 4584.75 480C4586.75 479.833 4588.58 479.667 4590.25 479.5V526.5C4586.75 527.333 4582.67 528 4578 528.5C4573.5 529.167 4568.5 529.5 4563 529.5ZM4708 530C4686.5 530 4668.17 524.833 4653 514.5C4638 504 4626.5 488.583 4618.5 468.25C4610.67 447.75 4606.75 422.5 4606.75 392.5V391.75C4606.75 362.083 4610.75 337.083 4618.75 316.75C4626.75 296.25 4638.33 280.833 4653.5 270.5C4668.67 260 4686.83 254.75 4708 254.75C4729.33 254.75 4747.58 260 4762.75 270.5C4777.92 280.833 4789.5 296.167 4797.5 316.5C4805.5 336.833 4809.5 361.917 4809.5 391.75V392.5C4809.5 422.5 4805.58 447.75 4797.75 468.25C4789.92 488.583 4778.42 504 4763.25 514.5C4748.25 524.833 4729.83 530 4708 530ZM4708 478.5C4716.33 478.5 4723.33 475.417 4729 469.25C4734.83 463.083 4739.17 453.667 4742 441C4745 428.167 4746.5 412 4746.5 392.5V392C4746.5 372.5 4745 356.417 4742 343.75C4739.17 331.083 4734.83 321.667 4729 315.5C4723.33 309.167 4716.33 306 4708 306C4699.83 306 4692.83 309.167 4687 315.5C4681.33 321.667 4677 331.083 4674 343.75C4671.17 356.417 4669.75 372.5 4669.75 392V392.5C4669.75 412 4671.17 428.167 4674 441C4677 453.667 4681.33 463.083 4687 469.25C4692.83 475.417 4699.83 478.5 4708 478.5ZM4842.5 612.5V259H4904.5V296.25H4905.75C4909.08 288.083 4913.5 280.917 4919 274.75C4924.5 268.583 4931.08 263.833 4938.75 260.5C4946.42 257.167 4955.17 255.5 4965 255.5C4981.83 255.5 4996.08 260.667 5007.75 271C5019.58 281.167 5028.58 296.333 5034.75 316.5C5041.08 336.5 5044.25 361.417 5044.25 391.25V391.75C5044.25 421.583 5041.08 446.667 5034.75 467C5028.58 487.167 5019.58 502.333 5007.75 512.5C4995.92 522.667 4981.5 527.75 4964.5 527.75C4955 527.75 4946.42 526.25 4938.75 523.25C4931.25 520.083 4924.67 515.5 4919 509.5C4913.5 503.333 4909.08 495.75 4905.75 486.75H4904.5V612.5H4842.5ZM4942.75 474C4951.08 474 4958.08 471 4963.75 465C4969.58 458.833 4973.92 449.75 4976.75 437.75C4979.75 425.583 4981.25 410.333 4981.25 392V391.5C4981.25 373.333 4979.75 358.167 4976.75 346C4973.75 333.667 4969.42 324.5 4963.75 318.5C4958.08 312.333 4951.08 309.25 4942.75 309.25C4933.42 309.25 4925.92 312.833 4920.25 320C4914.75 327 4910.75 336.75 4908.25 349.25C4905.75 361.583 4904.5 375.833 4904.5 392V392.5C4904.5 408.333 4905.75 422.417 4908.25 434.75C4910.75 446.917 4914.83 456.5 4920.5 463.5C4926.17 470.5 4933.58 474 4942.75 474ZM5162.5 529.5C5143.33 529.5 5126.83 526.167 5113 519.5C5099.17 512.833 5088.5 503.417 5081 491.25C5073.5 479.083 5069.67 464.583 5069.5 447.75V441.75H5129V448.25C5129.5 459.583 5132.5 468.167 5138 474C5143.67 479.667 5151.67 482.5 5162 482.5C5168.17 482.5 5173.42 481.417 5177.75 479.25C5182.25 476.917 5185.67 473.75 5188 469.75C5190.5 465.75 5191.75 461.083 5191.75 455.75V455.25C5191.75 447.083 5189.17 440.25 5184 434.75C5179 429.25 5170.58 424.167 5158.75 419.5L5135.25 410.75C5121.25 405.417 5109.67 399.083 5100.5 391.75C5091.5 384.25 5084.75 375.667 5080.25 366C5075.92 356.333 5073.75 345.333 5073.75 333V332.5C5073.75 317.333 5077.5 303.917 5085 292.25C5092.67 280.417 5103.17 271.25 5116.5 264.75C5129.83 258.083 5145.33 254.75 5163 254.75C5180.67 254.75 5195.83 258.083 5208.5 264.75C5221.17 271.25 5231 280.5 5238 292.5C5245 304.333 5248.58 318.25 5248.75 334.25V342.25H5192.25L5192 335.5C5191.67 324.833 5189 316.5 5184 310.5C5179 304.5 5172 301.5 5163 301.5C5157 301.5 5151.92 302.667 5147.75 305C5143.58 307.167 5140.33 310.25 5138 314.25C5135.83 318.25 5134.75 323 5134.75 328.5V329C5134.75 334.333 5135.75 339.083 5137.75 343.25C5139.92 347.25 5143.33 350.917 5148 354.25C5152.83 357.417 5159.25 360.583 5167.25 363.75L5190.5 372.25C5212.83 380.75 5228.92 391.083 5238.75 403.25C5248.75 415.417 5253.75 430.917 5253.75 449.75V450C5253.75 465.833 5249.92 479.75 5242.25 491.75C5234.75 503.583 5224.17 512.833 5210.5 519.5C5196.83 526.167 5180.83 529.5 5162.5 529.5ZM5319 528C5309.17 528 5300.75 524.417 5293.75 517.25C5286.92 510.083 5283.5 501.417 5283.5 491.25C5283.5 481.083 5286.92 472.5 5293.75 465.5C5300.75 458.333 5309.17 454.75 5319 454.75C5329 454.75 5337.42 458.333 5344.25 465.5C5351.25 472.5 5354.75 481.083 5354.75 491.25C5354.75 501.417 5351.25 510.083 5344.25 517.25C5337.42 524.417 5329 528 5319 528Z" fill="white"/>
</g>
<rect width="2937" height="685" rx="330" fill="black"/>
<path d="M326 525V220H253.75V164.25H462V220H389.75V525H326ZM491.5 525V164.25H553.25V296.75H554.75C559.583 283.75 566.917 273.5 576.75 266C586.75 258.5 599.25 254.75 614.25 254.75C628.25 254.75 640.25 258.167 650.25 265C660.25 271.833 667.917 281.5 673.25 294C678.75 306.5 681.5 321.417 681.5 338.75V525H619.75V350.5C619.75 338 617.167 327.917 612 320.25C606.833 312.417 598.75 308.5 587.75 308.5C580.417 308.5 574.167 310.417 569 314.25C564 317.917 560.083 323.167 557.25 330C554.583 336.667 553.25 344.5 553.25 353.5V525H491.5ZM810.5 530C789.833 530 772.167 524.833 757.5 514.5C743 504.167 731.917 488.833 724.25 468.5C716.75 448 713 422.583 713 392.25V391.75C713 361.583 716.75 336.333 724.25 316C731.75 295.667 742.583 280.333 756.75 270C770.917 259.5 788.083 254.25 808.25 254.25C828.417 254.25 845.5 259.5 859.5 270C873.5 280.333 884.167 295.583 891.5 315.75C899 335.75 902.75 360.167 902.75 389V409.25H745.75V367.75H873.25L843.5 405.75V375.25C843.5 359.583 842.083 346.5 839.25 336C836.417 325.333 832.417 317.333 827.25 312C822.25 306.5 816.167 303.75 809 303.75C801.833 303.75 795.667 306.5 790.5 312C785.5 317.5 781.583 325.583 778.75 336.25C776.083 346.75 774.75 359.75 774.75 375.25V406.5C774.75 422.833 776.25 436.5 779.25 447.5C782.25 458.5 786.417 466.75 791.75 472.25C797.25 477.583 803.75 480.25 811.25 480.25C817.083 480.25 822.25 478.917 826.75 476.25C831.25 473.417 834.917 469.417 837.75 464.25C840.583 459.083 842.583 452.917 843.75 445.75L844.75 440.75H901L900.25 447C898.75 459.167 895.667 470.333 891 480.5C886.5 490.5 880.5 499.25 873 506.75C865.5 514.083 856.5 519.833 846 524C835.5 528 823.667 530 810.5 530ZM1024.75 525V164.25H1130.5C1154 164.25 1173.58 168.417 1189.25 176.75C1204.92 185.083 1216.58 197.333 1224.25 213.5C1232.08 229.667 1236 249.417 1236 272.75V273.25C1236 296.75 1231.5 317.25 1222.5 334.75C1213.67 352.083 1201.08 364.667 1184.75 372.5L1243.25 525H1174.5L1123.5 384.75C1122.17 384.75 1120.83 384.75 1119.5 384.75C1118.17 384.75 1116.92 384.75 1115.75 384.75H1088.75V525H1024.75ZM1088.75 336.25H1122.5C1138.83 336.25 1150.92 331.417 1158.75 321.75C1166.75 312.083 1170.75 297 1170.75 276.5V276C1170.75 255.667 1166.67 240.667 1158.5 231C1150.5 221.333 1138.67 216.5 1123 216.5H1088.75V336.25ZM1359 530C1338.33 530 1320.67 524.833 1306 514.5C1291.5 504.167 1280.42 488.833 1272.75 468.5C1265.25 448 1261.5 422.583 1261.5 392.25V391.75C1261.5 361.583 1265.25 336.333 1272.75 316C1280.25 295.667 1291.08 280.333 1305.25 270C1319.42 259.5 1336.58 254.25 1356.75 254.25C1376.92 254.25 1394 259.5 1408 270C1422 280.333 1432.67 295.583 1440 315.75C1447.5 335.75 1451.25 360.167 1451.25 389V409.25H1294.25V367.75H1421.75L1392 405.75V375.25C1392 359.583 1390.58 346.5 1387.75 336C1384.92 325.333 1380.92 317.333 1375.75 312C1370.75 306.5 1364.67 303.75 1357.5 303.75C1350.33 303.75 1344.17 306.5 1339 312C1334 317.5 1330.08 325.583 1327.25 336.25C1324.58 346.75 1323.25 359.75 1323.25 375.25V406.5C1323.25 422.833 1324.75 436.5 1327.75 447.5C1330.75 458.5 1334.92 466.75 1340.25 472.25C1345.75 477.583 1352.25 480.25 1359.75 480.25C1365.58 480.25 1370.75 478.917 1375.25 476.25C1379.75 473.417 1383.42 469.417 1386.25 464.25C1389.08 459.083 1391.08 452.917 1392.25 445.75L1393.25 440.75H1449.5L1448.75 447C1447.25 459.167 1444.17 470.333 1439.5 480.5C1435 490.5 1429 499.25 1421.5 506.75C1414 514.083 1405 519.833 1394.5 524C1384 528 1372.17 530 1359 530ZM1568.25 529.5C1549.08 529.5 1532.58 526.167 1518.75 519.5C1504.92 512.833 1494.25 503.417 1486.75 491.25C1479.25 479.083 1475.42 464.583 1475.25 447.75V441.75H1534.75V448.25C1535.25 459.583 1538.25 468.167 1543.75 474C1549.42 479.667 1557.42 482.5 1567.75 482.5C1573.92 482.5 1579.17 481.417 1583.5 479.25C1588 476.917 1591.42 473.75 1593.75 469.75C1596.25 465.75 1597.5 461.083 1597.5 455.75V455.25C1597.5 447.083 1594.92 440.25 1589.75 434.75C1584.75 429.25 1576.33 424.167 1564.5 419.5L1541 410.75C1527 405.417 1515.42 399.083 1506.25 391.75C1497.25 384.25 1490.5 375.667 1486 366C1481.67 356.333 1479.5 345.333 1479.5 333V332.5C1479.5 317.333 1483.25 303.917 1490.75 292.25C1498.42 280.417 1508.92 271.25 1522.25 264.75C1535.58 258.083 1551.08 254.75 1568.75 254.75C1586.42 254.75 1601.58 258.083 1614.25 264.75C1626.92 271.25 1636.75 280.5 1643.75 292.5C1650.75 304.333 1654.33 318.25 1654.5 334.25V342.25H1598L1597.75 335.5C1597.42 324.833 1594.75 316.5 1589.75 310.5C1584.75 304.5 1577.75 301.5 1568.75 301.5C1562.75 301.5 1557.67 302.667 1553.5 305C1549.33 307.167 1546.08 310.25 1543.75 314.25C1541.58 318.25 1540.5 323 1540.5 328.5V329C1540.5 334.333 1541.5 339.083 1543.5 343.25C1545.67 347.25 1549.08 350.917 1553.75 354.25C1558.58 357.417 1565 360.583 1573 363.75L1596.25 372.25C1618.58 380.75 1634.67 391.083 1644.5 403.25C1654.5 415.417 1659.5 430.917 1659.5 449.75V450C1659.5 465.833 1655.67 479.75 1648 491.75C1640.5 503.583 1629.92 512.833 1616.25 519.5C1602.58 526.167 1586.58 529.5 1568.25 529.5ZM1781 530C1760.33 530 1742.67 524.833 1728 514.5C1713.5 504.167 1702.42 488.833 1694.75 468.5C1687.25 448 1683.5 422.583 1683.5 392.25V391.75C1683.5 361.583 1687.25 336.333 1694.75 316C1702.25 295.667 1713.08 280.333 1727.25 270C1741.42 259.5 1758.58 254.25 1778.75 254.25C1798.92 254.25 1816 259.5 1830 270C1844 280.333 1854.67 295.583 1862 315.75C1869.5 335.75 1873.25 360.167 1873.25 389V409.25H1716.25V367.75H1843.75L1814 405.75V375.25C1814 359.583 1812.58 346.5 1809.75 336C1806.92 325.333 1802.92 317.333 1797.75 312C1792.75 306.5 1786.67 303.75 1779.5 303.75C1772.33 303.75 1766.17 306.5 1761 312C1756 317.5 1752.08 325.583 1749.25 336.25C1746.58 346.75 1745.25 359.75 1745.25 375.25V406.5C1745.25 422.833 1746.75 436.5 1749.75 447.5C1752.75 458.5 1756.92 466.75 1762.25 472.25C1767.75 477.583 1774.25 480.25 1781.75 480.25C1787.58 480.25 1792.75 478.917 1797.25 476.25C1801.75 473.417 1805.42 469.417 1808.25 464.25C1811.08 459.083 1813.08 452.917 1814.25 445.75L1815.25 440.75H1871.5L1870.75 447C1869.25 459.167 1866.17 470.333 1861.5 480.5C1857 490.5 1851 499.25 1843.5 506.75C1836 514.083 1827 519.833 1816.5 524C1806 528 1794.17 530 1781 530ZM1965.25 529.25C1952.08 529.25 1940.33 526.25 1930 520.25C1919.83 514.25 1911.83 505.667 1906 494.5C1900.17 483.333 1897.25 470.083 1897.25 454.75V454.25C1897.25 439.083 1900.33 425.5 1906.5 413.5C1912.67 401.5 1922.5 391.667 1936 384C1949.67 376.333 1967.75 371.5 1990.25 369.5L2054 364V404.75L1999.75 410C1986.42 411.333 1976.25 415.333 1969.25 422C1962.42 428.5 1959 437.417 1959 448.75V449.25C1959 460.083 1961.75 468.083 1967.25 473.25C1972.92 478.417 1979.83 481 1988 481C1994.5 481 2000.33 479.333 2005.5 476C2010.83 472.5 2015.08 467.667 2018.25 461.5C2021.42 455.333 2023 447.917 2023 439.25V341.5C2023 329.833 2020.33 320.833 2015 314.5C2009.67 308.167 2002.42 305 1993.25 305C1984.08 305 1976.83 307.833 1971.5 313.5C1966.17 319.167 1963.08 328.333 1962.25 341V346H1905V339C1905.5 322.167 1909.25 307.417 1916.25 294.75C1923.42 282.083 1933.67 272.25 1947 265.25C1960.33 258.25 1976.33 254.75 1995 254.75C2014.17 254.75 2030.42 258.167 2043.75 265C2057.08 271.667 2067.25 281.417 2074.25 294.25C2081.25 307.083 2084.75 322.583 2084.75 340.75V525H2023V494.25H2021.75C2018.58 501.583 2014.25 507.833 2008.75 513C2003.42 518.167 1997.08 522.167 1989.75 525C1982.42 527.833 1974.25 529.25 1965.25 529.25ZM2123.25 525V259H2185.25V301H2186.5C2189.83 283.667 2195.5 271.667 2203.5 265C2211.67 258.167 2221.67 254.75 2233.5 254.75C2236.83 254.75 2240 255 2243 255.5C2246 255.833 2248.75 256.333 2251.25 257V315C2248.25 313.833 2244.92 312.917 2241.25 312.25C2237.58 311.417 2233.75 311 2229.75 311C2219.75 311 2211.42 313.5 2204.75 318.5C2198.25 323.5 2193.33 330.75 2190 340.25C2186.83 349.75 2185.25 361.333 2185.25 375V525H2123.25ZM2360 530C2340.17 530 2323 525.083 2308.5 515.25C2294.17 505.25 2283.08 490.083 2275.25 469.75C2267.58 449.417 2263.75 423.583 2263.75 392.25V391.5C2263.75 361.333 2267.5 336.083 2275 315.75C2282.67 295.417 2293.67 280.083 2308 269.75C2322.33 259.417 2339.58 254.25 2359.75 254.25C2378.92 254.25 2395 258.5 2408 267C2421 275.333 2431 286.917 2438 301.75C2445 316.417 2448.92 333.167 2449.75 352L2450.5 361.25H2393.25L2393 352.75C2391.83 338.417 2388.58 327 2383.25 318.5C2377.92 310 2370.58 305.75 2361.25 305.75C2353.58 305.75 2347.17 308.833 2342 315C2337 321.167 2333.17 330.667 2330.5 343.5C2328 356.167 2326.75 372.167 2326.75 391.5V392.5C2326.75 412.167 2328 428.417 2330.5 441.25C2333.17 453.917 2337 463.333 2342 469.5C2347.17 475.5 2353.67 478.5 2361.5 478.5C2371 478.5 2378.33 474.25 2383.5 465.75C2388.67 457.25 2391.83 445.917 2393 431.75L2393.25 423.25H2450.5L2449.75 432.5C2448.75 451.5 2444.75 468.333 2437.75 483C2430.92 497.667 2421 509.167 2408 517.5C2395 525.833 2379 530 2360 530ZM2483.5 525V164.25H2545.25V296.75H2546.75C2551.58 283.75 2558.92 273.5 2568.75 266C2578.75 258.5 2591.25 254.75 2606.25 254.75C2620.25 254.75 2632.25 258.167 2642.25 265C2652.25 271.833 2659.92 281.5 2665.25 294C2670.75 306.5 2673.5 321.417 2673.5 338.75V525H2611.75V350.5C2611.75 338 2609.17 327.917 2604 320.25C2598.83 312.417 2590.75 308.5 2579.75 308.5C2572.42 308.5 2566.17 310.417 2561 314.25C2556 317.917 2552.08 323.167 2549.25 330C2546.58 336.667 2545.25 344.5 2545.25 353.5V525H2483.5Z" fill="white"/>
<defs>
<filter id="filter0_d_2156_498" x="3095.5" y="155.25" width="2263.25" height="461.25" filterUnits="userSpaceOnUse" color-interpolation-filters="sRGB">
<feFlood flood-opacity="0" result="BackgroundImageFix"/>
<feColorMatrix in="SourceAlpha" type="matrix" values="0 0 0 0 0 0 0 0 0 0 0 0 0 0 0 0 0 0 127 0" result="hardAlpha"/>
<feOffset/>
<feGaussianBlur stdDeviation="2"/>
<feComposite in2="hardAlpha" operator="out"/>
<feColorMatrix type="matrix" values="0 0 0 0 0 0 0 0 0 0 0 0 0 0 0 0 0 0 0.67 0"/>
<feBlend mode="normal" in2="BackgroundImageFix" result="effect1_dropShadow_2156_498"/>
<feBlend mode="normal" in="SourceGraphic" in2="effect1_dropShadow_2156_498" result="shape"/>
</filter>
</defs>
</svg>
