<svg width="1028" height="1028" viewBox="0 0 1028 1028" fill="none" xmlns="http://www.w3.org/2000/svg">
<rect width="1028" height="1028" rx="279" fill="url(#paint0_linear_2152_428)"/>
<path fill-rule="evenodd" clip-rule="evenodd" d="M636.354 818.031V918.544C652.694 926.921 672.019 933.201 694.33 937.389C716.64 941.578 740.154 943.672 764.874 943.672C788.966 943.672 811.851 941.369 833.533 936.761C855.216 932.155 874.228 924.564 890.567 913.988C906.907 903.415 919.843 889.593 929.374 872.527C938.905 855.461 943.672 834.365 943.672 809.237C943.672 791.018 940.949 775.052 935.502 761.336C930.055 747.621 922.2 735.424 911.934 724.744C901.67 714.064 889.363 704.483 875.013 696.002C860.663 687.521 844.48 679.512 826.464 671.975C813.266 666.529 801.43 661.243 790.956 656.113C780.481 650.981 771.578 645.747 764.246 640.408C756.913 635.067 751.257 629.413 747.278 623.446C743.298 617.477 741.306 610.724 741.306 603.185C741.306 596.276 743.087 590.046 746.649 584.496C750.211 578.947 755.239 574.184 761.732 570.205C768.227 566.227 776.186 563.137 785.613 560.939C795.042 558.74 805.514 557.642 817.037 557.642C825.416 557.642 834.266 558.27 843.588 559.525C852.911 560.782 862.285 562.72 871.714 565.336C881.141 567.954 890.304 571.253 899.209 575.23C908.112 579.21 916.334 583.816 923.875 589.052V495.135C908.583 489.272 891.876 484.927 873.756 482.1C855.635 479.273 834.842 477.859 811.381 477.859C787.498 477.859 764.874 480.425 743.507 485.555C722.14 490.685 703.339 498.694 687.102 509.583C670.866 520.473 658.036 534.345 648.61 551.203C639.183 568.058 634.469 588.213 634.469 611.666C634.469 641.611 643.11 667.158 660.394 688.308C677.675 709.457 703.913 727.36 739.108 742.019C752.934 747.673 765.818 753.221 777.758 758.666C789.699 764.111 800.017 769.765 808.709 775.628C817.403 781.491 824.263 787.878 829.293 794.789C834.32 801.697 836.834 809.55 836.834 818.346C836.834 824.837 835.262 830.857 832.12 836.406C828.978 841.956 824.211 846.771 817.822 850.855C811.433 854.939 803.472 858.131 793.941 860.434C784.408 862.739 773.255 863.889 760.475 863.889C738.688 863.889 717.112 860.069 695.743 852.425C674.376 844.783 654.579 833.319 636.354 818.031ZM467.379 570.383H596.32V487.898H236.922V570.383H365.233V937.648H467.379V570.383Z" fill="white"/>
<defs>
<linearGradient id="paint0_linear_2152_428" x1="514" y1="0" x2="514" y2="1028" gradientUnits="userSpaceOnUse">
<stop stop-color="#3178C6"/>
<stop offset="1" stop-color="#055EB0"/>
</linearGradient>
</defs>
</svg>
